<svg xmlns="http://www.w3.org/2000/svg" version="1.0" width="64.000000pt" height="64.000000pt" viewBox="0 0 64.000000 64.000000" preserveAspectRatio="xMidYMid meet" transform="matrix(1, 0, 0, 1, 0, 0)">

<g transform="translate(0.000000,64.000000) scale(0.100000,-0.100000)" fill="#FE4365" stroke="none">
<path d="M3 544 c-3 -9 -1 -25 5 -35 15 -24 16 -281 1 -296 -5 -5 -9 -32 -7 -59 3 -48 4 -49 37 -52 22 -2 42 -13 58 -33 34 -40 75 -39 105 1 22 30 22 30 126 30 103 0 103 0 129 -30 33 -39 73 -40 103 -3 12 16 34 30 48 33 24 5 27 10 30 54 2 27 -2 54 -7 59 -6 6 -11 23 -11 37 0 37 -89 164 -118 168 -12 2 -22 10 -22 18 0 8 -4 14 -10 14 -5 0 -10 -7 -10 -15 0 -8 -9 -15 -20 -15 -16 0 -20 7 -20 35 0 19 5 44 12 54 6 10 8 26 5 35 -6 14 -31 16 -217 16 -186 0 -211 -2 -217 -16z m417 -14 c0 -6 -73 -10 -200 -10 -127 0 -200 4 -200 10 0 6 73 10 200 10 127 0 200 -4 200 -10z m-20 -170 l0 -140 -180 0 -180 0 0 140 0 140 180 0 180 0 0 -140z m158 -28 c23 -35 42 -75 42 -88 0 -24 -2 -24 -90 -24 l-90 0 0 91 0 90 48 -3 c46 -3 48 -5 90 -66z m62 -172 c0 -50 -20 -53 -57 -10 -33 40 -73 40 -106 0 -25 -30 -27 -30 -127 -30 -100 0 -102 0 -127 30 -17 20 -34 30 -53 30 -19 0 -36 -10 -53 -30 -15 -18 -35 -30 -49 -30 -21 0 -23 5 -23 40 l0 40 297 0 298 0 0 -40z m-436 -16 c31 -30 9 -84 -34 -84 -43 0 -65 54 -34 84 8 9 24 16 34 16 10 0 26 -7 34 -16z m360 0 c31 -30 9 -84 -34 -84 -24 0 -50 26 -50 50 0 24 26 50 50 50 10 0 26 -7 34 -16z" fill="#FE4365"/>
<path d="M175 471 c-45 -20 -70 -60 -70 -112 0 -42 5 -53 33 -81 28 -28 39 -33 82 -33 43 0 54 5 82 33 28 28 33 39 33 82 0 42 -5 54 -31 81 -33 33 -92 46 -129 30z m94 -25 c47 -25 63 -83 37 -135 -35 -66 -137 -66 -172 0 -47 91 44 182 135 135z" fill="#FE4365"/>
<path d="M233 368 c-27 -27 -34 -30 -48 -18 -25 21 -31 2 -7 -22 l22 -22 40 39 c38 38 49 55 32 55 -4 0 -22 -14 -39 -32z" fill="#FE4365"/>
<path d="M444 366 c-3 -8 -4 -29 -2 -48 3 -32 5 -33 51 -36 59 -4 68 12 35 62 -17 27 -30 36 -51 36 -15 0 -30 -6 -33 -14z m69 -36 l18 -30 -35 0 c-33 0 -36 2 -36 30 0 22 5 30 18 30 10 0 26 -13 35 -30z" fill="#FE4365"/>
<path d="M440 250 c0 -5 9 -10 20 -10 11 0 20 5 20 10 0 6 -9 10 -20 10 -11 0 -20 -4 -20 -10z" fill="#FE4365"/>
<path d="M60 160 c0 -11 5 -20 10 -20 6 0 10 9 10 20 0 11 -4 20 -10 20 -5 0 -10 -9 -10 -20z" fill="#FE4365"/>
<path d="M220 160 c0 -11 5 -20 10 -20 6 0 10 9 10 20 0 11 -4 20 -10 20 -5 0 -10 -9 -10 -20z" fill="#FE4365"/>
<path d="M270 160 c0 -11 5 -20 10 -20 6 0 10 9 10 20 0 11 -4 20 -10 20 -5 0 -10 -9 -10 -20z" fill="#FE4365"/>
<path d="M320 160 c0 -11 5 -20 10 -20 6 0 10 9 10 20 0 11 -4 20 -10 20 -5 0 -10 -9 -10 -20z" fill="#FE4365"/>
<path d="M370 160 c0 -11 5 -20 10 -20 6 0 10 9 10 20 0 11 -4 20 -10 20 -5 0 -10 -9 -10 -20z" fill="#FE4365"/>
<path d="M420 160 c0 -11 5 -20 10 -20 6 0 10 9 10 20 0 11 -4 20 -10 20 -5 0 -10 -9 -10 -20z" fill="#FE4365"/>
<path d="M580 160 c0 -11 5 -20 10 -20 6 0 10 9 10 20 0 11 -4 20 -10 20 -5 0 -10 -9 -10 -20z" fill="#FE4365"/>
<path d="M134 119 c-10 -17 13 -36 27 -22 12 12 4 33 -11 33 -5 0 -12 -5 -16 -11z" fill="#FE4365"/>
<path d="M494 119 c-10 -17 13 -36 27 -22 12 12 4 33 -11 33 -5 0 -12 -5 -16 -11z" fill="#FE4365"/>
</g>
</svg>