<svg xmlns="http://www.w3.org/2000/svg" version="1.0" width="100.000000pt" height="100.000000pt" viewBox="0 0 100.000000 100.000000" preserveAspectRatio="xMidYMid meet">

<g transform="translate(0.000000,100.000000) scale(0.100000,-0.100000)" fill="#FE4365" stroke="none">
<path d="M0 820 c0 -19 8 -20 288 -22 l287 -3 3 -277 2 -278 -100 0 c-95 0 -101 1 -109 23 -18 45 -59 72 -111 72 -52 0 -93 -27 -111 -73 -8 -20 -15 -23 -56 -20 l-48 3 -3 98 c-2 89 -4 97 -22 97 -19 0 -20 -7 -20 -100 0 -123 11 -140 90 -140 43 0 52 -3 59 -22 18 -46 59 -73 111 -73 52 0 93 27 111 73 8 21 12 22 159 22 147 0 151 -1 159 -22 18 -46 59 -73 111 -73 52 0 93 27 111 73 5 13 17 22 29 22 11 0 29 9 41 21 19 19 20 30 17 149 l-3 128 -40 58 c-22 32 -58 78 -81 101 l-41 43 -106 0 -107 0 0 50 c0 37 -5 55 -20 70 -19 19 -33 20 -310 20 -283 0 -290 -1 -290 -20z m720 -260 c0 -136 4 -140 140 -140 l101 0 -3 -87 c-3 -74 -6 -88 -20 -91 -11 -2 -21 5 -27 20 -18 46 -59 73 -111 73 -52 0 -93 -27 -111 -72 -6 -17 -17 -23 -39 -23 l-30 0 0 203 c0 112 3 207 7 210 3 4 26 7 50 7 l43 0 0 -100z m126 68 c48 -52 92 -113 104 -142 l10 -27 -98 3 -97 3 -3 98 -3 97 29 0 c19 0 38 -11 58 -32z m-531 -353 c50 -49 15 -135 -55 -135 -41 0 -80 39 -80 80 0 19 9 40 25 55 15 16 36 25 55 25 19 0 40 -9 55 -25z m540 0 c50 -49 15 -135 -55 -135 -41 0 -80 39 -80 80 0 41 39 80 80 80 19 0 40 -9 55 -25z" fill="#FE4365"/>
<path d="M0 740 c0 -19 7 -20 180 -20 173 0 180 1 180 20 0 19 -7 20 -180 20 -173 0 -180 -1 -180 -20z" fill="#FE4365"/>
<path d="M0 660 c0 -19 7 -20 150 -20 143 0 150 1 150 20 0 19 -7 20 -150 20 -143 0 -150 -1 -150 -20z" fill="#FE4365"/>
<path d="M0 580 c0 -19 7 -20 120 -20 113 0 120 1 120 20 0 19 -7 20 -120 20 -113 0 -120 -1 -120 -20z" fill="#FE4365"/>
<path d="M0 500 c0 -19 7 -20 90 -20 83 0 90 1 90 20 0 19 -7 20 -90 20 -83 0 -90 -1 -90 -20z" fill="#FE4365"/>
</g>
</svg>